<?xml version="1.0" standalone="no"?>
<!DOCTYPE svg PUBLIC "-//W3C//DTD SVG 20010904//EN"
 "http://www.w3.org/TR/2001/REC-SVG-20010904/DTD/svg10.dtd">
<svg version="1.0" xmlns="http://www.w3.org/2000/svg"
 width="1212.000000pt" height="480.000000pt" viewBox="0 0 1212.000000 480.000000"
 preserveAspectRatio="xMidYMid meet">

<g transform="translate(0.000000,480.000000) scale(0.100000,-0.100000)"
fill="#000000" stroke="none">
<path d="M5778 4769 c-280 -22 -716 -175 -975 -345 -363 -236 -673 -572 -857
-928 -169 -326 -252 -650 -263 -1026 -10 -350 39 -628 171 -973 29 -77 41
-100 116 -242 56 -105 65 -119 184 -280 230 -312 538 -566 891 -735 122 -58
381 -147 521 -178 227 -52 542 -62 829 -28 147 18 215 34 415 98 574 183 1072
601 1363 1143 116 216 180 394 232 646 47 229 62 435 46 639 -58 734 -403
1347 -1006 1787 -316 231 -749 395 -1115 423 -146 11 -399 11 -552 -1z m612
-64 c443 -68 836 -242 1170 -520 92 -77 256 -245 333 -342 236 -298 405 -679
474 -1068 27 -156 24 -617 -5 -775 -68 -370 -219 -713 -443 -1011 -92 -122
-345 -371 -469 -461 -254 -184 -528 -314 -809 -382 -237 -59 -338 -71 -581
-70 -235 1 -357 16 -580 72 -494 126 -953 432 -1267 845 -234 307 -390 676
-450 1059 -25 160 -25 539 0 696 60 383 218 753 452 1062 288 379 704 670
1164 814 108 34 349 83 471 95 126 13 410 5 540 -14z"/>
<path d="M5793 4630 c-730 -91 -1374 -536 -1712 -1181 -120 -229 -193 -450
-238 -714 -28 -168 -25 -537 5 -700 36 -190 79 -339 143 -493 275 -663 836
-1146 1533 -1322 335 -85 773 -83 1109 5 394 102 790 337 1066 631 310 331
498 709 588 1184 14 76 17 148 18 360 0 287 -5 334 -66 574 -108 431 -384 864
-733 1151 -311 255 -657 415 -1051 487 -125 23 -534 34 -662 18z m289 -332 l3
-153 73 -3 73 -3 -3 -37 -3 -37 -95 -1 c-155 -1 -140 -22 -140 190 0 101 3
186 7 189 3 4 23 7 44 7 l38 0 3 -152z m-271 89 c45 -30 79 -94 86 -161 21
-201 -246 -286 -336 -107 -55 107 -21 236 74 277 50 22 137 18 176 -9z m740 7
c4 -2 -1 -36 -11 -74 -21 -80 -27 -80 67 -2 48 40 56 43 90 37 79 -13 74 -23
-72 -128 -19 -14 -19 -16 13 -120 43 -140 43 -138 -15 -123 -52 13 -47 5 -83
143 -10 38 -13 41 -29 31 -10 -6 -26 -38 -35 -71 -17 -59 -17 -59 -49 -53 -17
4 -36 11 -41 16 -8 8 29 169 71 313 l14 49 37 -7 c20 -4 40 -9 43 -11z m518
-103 c37 -19 35 -22 -21 -40 -31 -10 -42 -9 -69 4 l-32 17 29 19 c36 23 50 23
93 0z m-70 -60 c45 -23 81 -44 81 -47 0 -3 -7 -18 -15 -35 l-16 -29 -59 30
c-33 16 -64 30 -69 30 -5 0 -14 -14 -20 -30 -10 -30 -9 -31 50 -60 l59 -30
-15 -30 c-9 -17 -20 -30 -26 -30 -5 0 -33 12 -61 26 -53 27 -57 26 -76 -18
-11 -27 -10 -28 51 -59 34 -17 64 -33 66 -35 6 -6 -21 -64 -30 -64 -5 0 -55
23 -112 52 l-104 51 83 168 c96 193 72 181 213 110z m-1636 35 c41 -17 91 -74
107 -121 18 -54 9 -145 -18 -182 -54 -75 -183 -95 -256 -40 -52 40 -90 125
-84 187 12 123 140 203 251 156z m-358 -163 l18 -27 -38 -33 -37 -32 38 -53
c21 -29 60 -81 87 -116 27 -34 47 -68 44 -75 -3 -6 -19 -20 -35 -30 l-31 -18
-86 116 c-48 63 -91 115 -96 115 -6 0 -25 -11 -44 -25 l-33 -26 -21 27 c-12
15 -20 31 -19 35 4 10 219 169 229 169 4 0 15 -12 24 -27z m2267 -53 c69 -19
137 -102 138 -165 0 -71 -64 -166 -137 -200 -74 -35 -165 -4 -226 76 -27 38
-33 101 -13 153 20 51 92 122 133 132 15 3 33 7 38 9 18 6 29 5 67 -5z m-1465
-132 c11 -13 30 -40 43 -61 27 -46 4 -48 282 24 241 62 234 63 264 -47 l17
-64 246 0 c179 0 250 -3 259 -12 7 -7 12 -38 12 -69 0 -68 -21 -57 230 -119
211 -52 228 -58 240 -80 7 -13 -4 -63 -39 -186 -27 -93 -77 -270 -111 -394
-35 -124 -66 -229 -70 -233 -4 -4 -28 24 -53 62 -134 201 -380 385 -621 465
-284 94 -593 93 -857 -4 -107 -39 -230 -105 -321 -172 -92 -69 -220 -203 -278
-290 -24 -38 -49 -68 -55 -68 -5 1 -55 76 -111 168 -56 92 -140 231 -188 309
-69 113 -85 146 -77 160 5 10 104 69 220 132 156 84 211 119 211 132 0 26 35
46 115 64 49 12 111 39 210 95 288 161 380 210 396 210 8 0 25 -10 36 -22z
m580 -803 c62 -20 115 -39 117 -44 3 -4 -19 1 -49 11 -29 10 -68 19 -87 20
-33 3 -33 3 -36 -46 -2 -27 -10 -59 -19 -72 -15 -23 -14 -24 8 -24 66 -1 238
-33 313 -58 50 -17 51 -18 60 -68 9 -51 10 -52 48 -58 33 -5 49 -1 95 25 l56
32 19 -24 c91 -113 188 -272 175 -286 -6 -5 -235 24 -247 32 -5 3 -23 30 -40
60 -39 68 -59 63 -24 -7 15 -30 20 -48 13 -46 -7 2 -22 26 -33 53 l-20 48 25
21 c14 12 36 28 49 37 24 16 24 16 -47 35 l-71 18 -6 49 c-6 42 -11 50 -39 62
-91 38 -316 65 -564 68 -166 3 -173 3 -198 27 -20 19 -25 33 -25 71 0 26 -3
50 -7 52 -5 3 -32 -2 -62 -9 -73 -19 -76 -11 -4 11 32 10 63 21 68 26 22 17
145 28 280 24 128 -3 149 -6 252 -40z m-277 -234 c0 -5 -7 -11 -15 -15 -22 -8
-20 -92 3 -105 13 -8 4 -10 -38 -10 -42 0 -51 2 -37 10 22 13 24 97 2 105 -31
12 -13 24 35 24 28 0 50 -4 50 -9z m88 3 c25 -5 34 -14 44 -46 l14 -41 18 42
c11 22 25 41 31 41 30 0 75 -13 75 -22 0 -5 -4 -6 -10 -3 -5 3 -12 -4 -14 -17
-13 -65 -13 -79 3 -88 12 -7 5 -9 -27 -10 -41 0 -42 1 -36 28 3 15 7 33 10 40
8 27 -13 10 -29 -23 -20 -42 -44 -45 -57 -7 -24 64 -30 69 -27 20 2 -47 2 -48
-27 -48 -23 0 -27 3 -18 12 7 7 12 34 12 60 0 37 -4 48 -16 48 -8 0 -12 5 -9
10 7 12 21 12 63 4z m-254 -10 c18 -7 21 -39 5 -50 -8 -4 -8 -9 0 -17 6 -6 11
-20 11 -31 0 -17 2 -18 10 -6 5 8 12 11 15 8 12 -12 -6 -28 -31 -28 -17 0 -27
8 -34 25 -11 30 -50 35 -50 7 0 -10 5 -23 12 -30 9 -9 2 -12 -32 -12 -25 0
-40 4 -33 8 16 10 5 102 -13 102 -8 0 -14 4 -14 9 0 14 125 26 154 15z m576
-22 c42 -5 56 -12 58 -26 2 -10 -1 -23 -7 -29 -9 -9 -13 -6 -17 10 -9 34 -74
46 -74 13 0 -23 10 -26 28 -8 17 17 24 5 16 -26 -6 -25 -8 -26 -23 -11 -24 21
-28 19 -36 -14 -5 -25 -11 -29 -36 -29 -16 1 -29 5 -29 10 0 4 6 7 13 6 8 -2
13 14 15 50 2 31 -1 52 -7 52 -6 0 -11 4 -11 10 0 5 12 7 28 5 15 -3 52 -9 82
-13z m-756 -15 c9 -15 7 -22 -13 -38 -13 -10 -34 -19 -47 -19 -16 0 -24 -6
-24 -18 0 -18 -18 -42 -31 -42 -4 0 -10 18 -14 41 -4 22 -16 48 -27 59 -20 18
-19 18 34 28 73 14 109 10 122 -11z m-395 -44 l45 -26 -39 -14 c-21 -7 -40
-15 -42 -17 -2 -1 19 -17 47 -34 l50 -31 -37 -63 c-20 -35 -38 -65 -40 -67 -4
-5 -257 -40 -261 -36 -5 5 37 85 86 160 56 87 113 154 131 155 8 0 35 -12 60
-27z m1191 -54 c-7 -11 -14 -19 -16 -16 -7 7 7 37 17 37 6 0 5 -9 -1 -21z
m-83 -85 c28 -5 32 -10 27 -28 -5 -22 -1 -23 87 -34 51 -6 97 -17 103 -23 8
-9 6 -10 -9 -5 -32 12 -746 18 -905 9 -99 -6 -147 -6 -152 2 -4 6 3 14 18 19
14 4 35 18 48 31 20 20 37 24 132 30 60 3 114 8 119 11 15 6 494 -5 532 -12z
m-1074 -82 c-3 -12 -9 -22 -14 -22 -5 0 -3 11 3 25 13 30 20 28 11 -3z m90 -9
c-7 -2 -19 -2 -25 0 -7 3 -2 5 12 5 14 0 19 -2 13 -5z m-56 -9 c-3 -3 -12 -4
-19 -1 -8 3 -5 6 6 6 11 1 17 -2 13 -5z m555 -215 c14 -8 23 -8 31 0 25 25 37
11 37 -39 0 -58 -16 -66 -42 -20 -30 53 -104 63 -143 20 -26 -28 -30 -98 -8
-140 33 -64 108 -66 148 -3 34 54 60 40 30 -16 -18 -35 -57 -52 -122 -53 -97
0 -156 51 -156 134 0 75 63 128 151 128 29 0 63 -5 74 -11z m323 -26 c9 -21
28 -72 42 -113 14 -41 33 -81 41 -87 17 -14 68 -18 75 -5 3 4 8 50 12 104 7
95 7 96 -16 100 -35 5 -36 28 -1 28 55 0 233 -21 257 -30 53 -20 52 -80 -2
-101 -24 -9 -25 -11 -9 -28 9 -10 16 -35 16 -59 0 -31 4 -42 15 -42 9 0 18 7
21 15 9 22 24 18 24 -6 0 -43 35 -11 100 91 l66 105 44 -3 c25 -2 48 -6 52
-10 4 -4 16 -59 27 -122 14 -81 25 -118 37 -127 10 -7 15 -15 13 -18 -7 -7
-79 7 -75 14 3 4 -11 5 -30 3 -36 -4 -48 12 -14 21 20 5 26 32 12 54 -5 7 -35
16 -68 19 -54 5 -60 4 -73 -17 -12 -20 -11 -24 10 -41 l24 -20 -60 7 c-33 4
-81 8 -107 9 -57 1 -78 19 -85 74 -6 46 -15 57 -55 64 -33 6 -44 -5 -53 -54
-7 -34 -5 -39 19 -48 39 -14 32 -20 -21 -15 -27 3 -102 8 -167 11 -118 6 -119
7 -96 24 23 17 23 19 7 44 -15 22 -25 26 -67 26 -39 0 -52 -4 -65 -22 -15 -21
-14 -24 5 -40 11 -9 20 -19 20 -22 0 -3 -24 -6 -54 -6 -55 0 -82 14 -51 26 9
4 41 58 70 120 l54 114 45 0 c43 0 47 -2 61 -37z m-581 -26 c6 -30 4 -39 -10
-44 -11 -4 -20 -1 -22 7 -3 8 -16 25 -29 38 -21 21 -31 24 -66 19 -54 -7 -77
-35 -77 -94 0 -82 43 -130 105 -119 33 7 50 21 70 58 12 25 31 20 27 -7 -10
-76 -153 -106 -238 -50 -57 37 -68 133 -22 182 42 46 75 56 155 50 44 -3 75
-1 79 5 9 15 21 -3 28 -45z m-427 -44 c17 -27 42 -70 58 -98 15 -27 39 -60 54
-72 24 -21 24 -23 6 -24 -11 0 -44 -4 -72 -8 -57 -8 -61 -6 -38 19 14 15 14
19 -3 40 -16 20 -23 21 -75 15 -42 -5 -60 -13 -68 -27 -14 -26 -4 -48 21 -48
11 0 20 -4 20 -9 0 -9 -48 -21 -87 -21 l-24 0 19 25 c11 14 23 46 27 72 3 27
13 76 22 110 16 65 20 68 84 72 22 1 33 -8 56 -46z m2083 -29 c63 -14 117 -28
119 -29 2 -2 -1 -21 -6 -42 -11 -46 -40 -58 -40 -17 0 29 -25 54 -54 54 -13 0
-22 -16 -35 -60 -9 -33 -20 -60 -23 -60 -4 0 -8 -18 -9 -40 -3 -35 0 -41 24
-50 48 -19 19 -20 -69 -3 -91 18 -109 30 -55 35 28 3 34 8 45 46 6 23 13 68
15 100 3 56 2 57 -24 60 -19 2 -36 -5 -53 -22 -30 -30 -55 -34 -50 -8 16 79
12 75 58 68 23 -4 94 -18 157 -32z m-2379 5 c22 -22 19 -50 -9 -81 -13 -16
-13 -18 4 -24 38 -11 49 -22 52 -47 5 -38 -13 -64 -53 -77 -74 -24 -236 -56
-241 -48 -3 5 3 12 14 15 32 8 33 25 5 117 -25 82 -28 86 -55 86 -17 0 -28 5
-28 13 0 10 38 22 118 40 146 31 167 32 193 6z m1338 -223 c-3 -3 -94 -6 -204
-7 -110 -2 -239 -5 -287 -8 -48 -3 -84 -3 -80 1 4 4 41 9 82 11 120 5 494 7
489 3z m124 -13 c-7 -2 -21 -2 -30 0 -10 3 -4 5 12 5 17 0 24 -2 18 -5z m-918
-28 c-110 -13 -229 -28 -265 -34 -36 -6 -74 -10 -85 -10 -38 2 50 18 210 38
200 26 218 28 285 28 30 1 -35 -9 -145 -22z m1193 8 c-10 -2 -28 -2 -40 0 -13
2 -5 4 17 4 22 1 32 -1 23 -4z m80 -10 c-10 -2 -26 -2 -35 0 -10 3 -2 5 17 5
19 0 27 -2 18 -5z m80 -10 c-10 -2 -26 -2 -35 0 -10 3 -2 5 17 5 19 0 27 -2
18 -5z m65 -10 c-7 -2 -21 -2 -30 0 -10 3 -4 5 12 5 17 0 24 -2 18 -5z m54 -9
c-3 -3 -12 -4 -19 -1 -8 3 -5 6 6 6 11 1 17 -2 13 -5z m-1057 -119 c0 -3 -12
-16 -27 -29 -32 -27 -26 -56 12 -56 31 0 32 -13 3 -28 -20 -9 -15 -11 31 -11
l53 -1 -23 20 -24 19 28 1 c40 0 45 26 11 61 l-28 29 82 0 c45 0 82 -3 82 -7
0 -4 -10 -17 -21 -29 l-21 -23 33 -40 34 -41 37 42 36 42 -24 19 c-38 29 -29
37 40 37 68 0 90 -13 61 -34 -26 -19 -15 -51 18 -51 31 1 36 -19 10 -34 -14
-8 -8 -10 27 -10 35 0 41 2 28 10 -27 15 -22 35 10 34 21 0 28 5 30 23 2 13
-3 25 -12 28 -9 3 -16 11 -16 16 0 12 175 6 187 -6 5 -4 -26 -41 -68 -81 -91
-87 -201 -145 -321 -169 -149 -31 -276 -16 -432 48 -56 23 -102 36 -132 36
-31 0 -54 7 -71 20 -14 11 -33 20 -42 19 -10 0 -8 -4 7 -10 13 -5 20 -14 17
-20 -4 -6 0 -9 11 -7 10 2 19 -2 19 -9 0 -6 3 -15 8 -19 18 -18 5 -23 -15 -5
-11 11 -25 18 -30 15 -5 -3 -7 0 -6 7 2 7 -14 22 -34 33 -21 12 -38 27 -38 34
0 15 22 16 37 1 14 -14 63 0 63 18 0 22 -29 73 -42 73 -8 0 -8 3 -2 9 5 5 41
12 80 15 69 7 72 6 77 -16 4 -13 21 -38 40 -56 l33 -32 37 35 c20 19 37 39 37
45 0 5 0 13 0 18 -1 4 14 10 32 13 45 9 78 10 78 4z m1038 -40 c56 -4 105 -11
108 -16 6 -11 -72 -171 -114 -231 -17 -24 -51 -67 -76 -94 l-45 -49 -1 32 c0
28 -7 38 -54 69 -33 21 -59 48 -67 67 -12 28 -10 35 15 81 64 114 96 157 114
152 9 -2 63 -8 120 -11z m-1628 -82 c75 -125 72 -149 -27 -205 -41 -23 -53
-35 -53 -54 0 -33 -10 -30 -46 14 -72 87 -174 267 -174 308 0 13 36 17 186 22
l61 2 53 -87z m-441 15 c6 -18 7 -28 2 -23 -10 12 -25 55 -18 55 3 0 10 -15
16 -32z m2331 28 c0 -14 -60 -135 -70 -141 -6 -4 -3 10 8 31 11 22 25 56 31
77 7 20 17 37 22 37 5 0 9 -2 9 -4z m-965 -431 c23 -22 25 -31 25 -123 l0
-100 -75 -11 c-97 -14 -223 -14 -320 0 l-75 11 0 101 c0 90 2 103 22 124 21
22 26 23 210 23 187 0 189 0 213 -25z m-1785 -37 c11 -37 12 -38 63 -38 l52
-1 -39 -36 -39 -36 12 -45 c6 -25 10 -47 7 -49 -3 -3 -17 4 -33 14 -15 11 -33
23 -39 26 -6 3 -28 -5 -48 -19 -21 -14 -39 -24 -41 -22 -2 1 1 24 7 49 11 46
11 46 -28 82 l-39 36 52 1 c51 0 52 1 64 38 6 20 14 41 16 45 8 13 19 -4 33
-45z m3140 -20 c11 -37 12 -38 63 -38 l52 -1 -40 -34 -39 -34 12 -47 c7 -26
10 -49 8 -52 -3 -3 -21 7 -40 22 -19 14 -38 26 -41 26 -3 0 -22 -12 -41 -26
-19 -15 -36 -25 -38 -23 -3 2 1 25 7 52 l10 47 -39 35 -39 34 52 1 c51 0 52 1
64 38 6 20 14 41 16 45 8 13 19 -4 33 -45z m-250 -208 c0 -3 -23 -20 -50 -38
-44 -29 -49 -35 -40 -52 13 -25 12 -25 62 1 109 56 186 -48 104 -139 -31 -34
-130 -92 -140 -81 -2 2 -6 14 -10 26 -6 18 -1 23 27 32 45 15 77 46 77 76 0
21 -5 25 -32 25 -17 0 -50 -11 -74 -25 l-42 -25 -27 71 c-15 38 -25 72 -23 75
3 2 36 24 74 49 62 40 70 43 82 28 6 -9 12 -19 12 -23z m-2613 -10 c71 -43 82
-122 28 -199 -38 -56 -86 -77 -138 -61 -97 29 -125 112 -68 201 46 73 117 97
178 59z m248 -137 c92 -46 103 -56 87 -79 -8 -14 -231 -174 -240 -174 -13 0
-72 40 -72 48 0 5 11 14 24 20 13 6 64 36 112 68 l88 56 -59 30 c-33 17 -62
32 -63 33 -7 6 9 45 19 45 5 0 52 -21 104 -47z m2123 11 c2 -16 -8 -25 -48
-44 -42 -20 -49 -27 -44 -44 4 -12 7 -22 8 -23 1 -1 21 5 45 13 54 18 94 11
121 -23 43 -54 12 -115 -81 -162 -80 -40 -99 -40 -99 -2 0 25 4 29 38 35 49 7
91 49 76 74 -16 25 -47 26 -94 2 -23 -12 -46 -18 -50 -13 -13 13 -42 137 -33
140 4 2 35 19 68 38 66 38 88 40 93 9z m-238 -125 c0 -4 -24 -16 -52 -27 -43
-16 -53 -24 -53 -43 0 -20 4 -23 25 -19 63 12 112 5 131 -19 57 -70 -17 -163
-142 -178 -47 -6 -49 -5 -49 19 0 22 6 26 43 32 53 9 87 31 87 56 0 40 -53 45
-134 14 -9 -4 -16 16 -25 67 -6 39 -9 74 -6 78 4 3 39 18 78 33 65 24 73 25
85 10 6 -9 12 -19 12 -23z m-1630 -1 c80 -41 88 -133 19 -213 -37 -42 -79 -52
-157 -36 -66 13 -76 21 -67 51 5 15 12 19 23 15 36 -16 107 -17 126 -2 18 13
16 14 -21 20 -77 13 -123 85 -86 135 41 56 93 65 163 30z m1368 -75 c3 -18 -4
-23 -52 -34 -49 -11 -56 -15 -56 -37 0 -23 3 -24 39 -18 46 7 98 -9 111 -34 6
-10 10 -34 10 -53 0 -27 -8 -42 -35 -65 -34 -30 -63 -40 -135 -45 -31 -2 -35
1 -38 26 -3 26 -1 27 40 27 53 0 90 23 86 53 -3 20 -9 22 -69 21 l-67 0 -7 69
c-3 38 -4 72 0 75 8 9 136 40 155 38 8 0 16 -11 18 -23z m-956 -23 l31 0 -7
-62 c-4 -35 -10 -75 -13 -90 -5 -24 -2 -28 16 -28 21 0 26 -15 15 -43 -3 -9
-13 -13 -25 -10 -16 4 -19 0 -19 -26 0 -26 -4 -31 -22 -31 -52 0 -67 10 -61
40 6 31 8 29 -84 50 -39 9 -53 17 -53 30 0 23 161 181 178 175 8 -3 27 -5 44
-5z m282 -26 c12 -5 14 -20 9 -90 -6 -81 -5 -84 16 -84 16 0 21 -6 21 -25 0
-18 -5 -25 -20 -25 -16 0 -20 -7 -20 -36 0 -35 -1 -35 -37 -32 -35 3 -38 6
-41 36 -3 28 -7 32 -31 32 -70 0 -121 13 -121 30 0 9 33 58 73 108 63 81 76
92 104 92 17 0 38 -3 47 -6z m251 -8 c38 -16 55 -42 55 -83 0 -31 -17 -61 -64
-111 l-31 -34 58 7 c57 7 57 7 57 -19 0 -31 -7 -32 -141 -40 -86 -6 -98 -4
-103 11 -5 12 0 24 16 36 54 43 119 112 124 134 12 45 -38 69 -88 42 -18 -9
-24 -8 -35 7 -19 26 -12 37 33 51 53 16 79 16 119 -1z m-791 -132 c9 -8 16
-22 16 -29 0 -19 -28 -45 -49 -45 -10 0 -26 9 -36 20 -40 44 27 97 69 54z
m1012 -69 c8 -31 -10 -55 -40 -55 -26 0 -46 18 -46 40 0 24 21 40 52 40 21 0
29 -6 34 -25z"/>
<path d="M5653 4314 c-23 -23 -25 -31 -21 -89 3 -55 8 -69 33 -95 51 -54 124
-31 137 43 8 44 -10 109 -39 140 -34 35 -75 36 -110 1z"/>
<path d="M5233 4185 c-45 -31 -36 -118 18 -180 24 -27 39 -35 65 -35 70 0 96
77 54 160 -34 66 -89 88 -137 55z"/>
<path d="M7194 3961 c-89 -54 -111 -174 -37 -202 56 -21 128 29 153 106 15 45
0 87 -36 104 -34 15 -44 14 -80 -8z"/>
<path d="M6188 3687 c-26 -28 -47 -52 -45 -53 1 -1 15 -6 31 -10 26 -6 28 -5
21 15 -5 16 -2 21 12 21 10 0 25 -5 33 -10 13 -9 13 -11 0 -20 -13 -9 -13 -11
0 -20 8 -5 25 -10 37 -10 20 0 21 3 12 32 -5 18 -9 47 -9 64 0 29 -16 46 -38
43 -4 0 -28 -24 -54 -52z m52 -2 c0 -8 -4 -15 -10 -15 -5 0 -10 7 -10 15 0 8
5 15 10 15 6 0 10 -7 10 -15z"/>
<path d="M5702 3710 c-19 -8 -22 -16 -20 -57 3 -48 3 -48 41 -51 48 -4 67 11
67 53 0 47 -41 73 -88 55z m48 -30 c0 -11 -7 -20 -15 -20 -8 0 -15 9 -15 20 0
11 7 20 15 20 8 0 15 -9 15 -20z m-11 -61 c-9 -5 -15 -4 -18 2 -2 6 3 15 10
20 9 5 15 4 18 -2 2 -6 -3 -15 -10 -20z"/>
<path d="M5218 3553 c-24 -6 -34 -44 -15 -58 8 -6 15 -20 14 -31 -3 -25 36
-31 69 -10 29 20 32 65 6 89 -18 17 -39 19 -74 10z m52 -29 c0 -20 -30 -30
-40 -13 -11 17 7 40 26 32 8 -3 14 -12 14 -19z m0 -59 c-10 -12 -16 -13 -27
-3 -13 10 -12 14 3 25 24 17 42 0 24 -22z"/>
<path d="M5687 3493 c-4 -3 -7 -15 -7 -25 0 -10 -4 -18 -9 -18 -18 0 -41 -31
-41 -55 0 -31 41 -59 70 -50 19 6 21 4 15 -14 -5 -18 -2 -21 20 -21 22 0 26 4
22 20 -4 16 -1 18 23 13 20 -4 34 1 49 16 28 28 27 47 -4 75 -14 13 -25 29
-25 36 0 8 -6 9 -17 4 -10 -4 -34 -8 -53 -8 -27 -1 -35 3 -34 17 2 19 1 20 -9
10z"/>
<path d="M6068 3463 c6 -32 58 -113 73 -113 31 0 139 78 139 100 0 3 -15 5
-33 6 -80 3 -126 8 -122 15 6 8 -19 19 -44 19 -14 0 -17 -6 -13 -27z"/>
<path d="M5349 3323 c-1 -5 0 -12 1 -18 1 -5 -1 -7 -5 -3 -4 3 -20 2 -37 -4
-22 -8 -32 -8 -37 1 -5 7 -14 -2 -23 -23 l-17 -34 57 -35 c64 -40 63 -40 106
34 l26 45 -30 22 c-31 24 -39 26 -41 15z"/>
<path d="M4763 3309 c-7 -7 -7 -26 -2 -57 5 -25 7 -54 3 -64 -7 -22 13 -23 41
-2 17 12 17 16 6 24 -12 7 -13 11 -1 25 14 17 34 15 36 -3 1 -7 2 -15 3 -18 0
-3 15 4 31 16 l31 22 -38 20 c-21 11 -45 26 -54 34 -19 17 -41 18 -56 3z m47
-50 c0 -5 -4 -9 -10 -9 -5 0 -10 7 -10 16 0 8 5 12 10 9 6 -3 10 -10 10 -16z"/>
<path d="M4960 3100 c-7 -16 -15 -31 -19 -31 -39 -8 -51 -5 -52 15 -1 16 -3
14 -10 -9 -12 -39 -4 -92 17 -116 23 -25 59 -24 77 2 14 20 16 20 25 2 10 -17
12 -17 29 -1 13 14 14 21 5 30 -9 9 -5 15 19 25 42 17 37 58 -10 90 -46 31
-66 29 -81 -7z"/>
<path d="M5867 2853 c-10 -15 10 -35 29 -31 26 5 24 32 -3 36 -11 2 -23 -1
-26 -5z"/>
<path d="M5677 2834 c-16 -16 -6 -34 19 -34 19 0 25 5 22 17 -3 19 -29 29 -41
17z"/>
<path d="M6214 2266 c-20 -42 -13 -66 20 -66 33 0 40 14 26 55 -16 49 -27 51
-46 11z"/>
<path d="M6572 2263 c3 -37 4 -38 46 -41 47 -3 72 10 72 39 0 24 -30 39 -80
39 l-41 0 3 -37z"/>
<path d="M6950 2198 c-26 -42 -22 -52 23 -56 41 -4 41 -3 26 51 -12 46 -23 47
-49 5z"/>
<path d="M5201 2189 c-7 -24 -9 -45 -4 -50 12 -12 73 0 73 14 0 14 -40 77 -49
77 -4 0 -13 -19 -20 -41z"/>
<path d="M4858 2193 c-35 -9 -19 -83 17 -83 60 0 95 33 75 71 -10 19 -48 24
-92 12z"/>
<path d="M4895 2091 c-27 -6 -30 -10 -29 -44 1 -20 7 -43 13 -51 24 -28 121 6
121 42 0 43 -46 67 -105 53z"/>
<path d="M4728 960 c-33 -26 -68 -81 -68 -107 0 -12 7 -26 15 -33 21 -18 57 8
90 65 43 73 20 120 -37 75z"/>
<path d="M5214 716 c-3 -8 -4 -25 -2 -38 2 -19 9 -23 38 -23 29 0 36 4 38 23
2 13 -2 30 -8 38 -16 18 -59 18 -66 0z"/>
<path d="M5623 568 c-18 -22 -33 -44 -33 -49 0 -17 49 -9 54 9 9 31 18 82 14
81 -2 0 -18 -18 -35 -41z"/>
<path d="M5893 526 c-33 -47 -33 -56 3 -56 19 0 24 7 30 45 3 25 4 48 2 50 -2
3 -18 -15 -35 -39z"/>
</g>
</svg>
